<?xml version="1.0" encoding="UTF-8"?>
<!-- Generator: Adobe Illustrator 24.3.0, SVG Export Plug-In . SVG Version: 6.00 Build 0)  -->
<svg version="1.1" id="Layer_1" xmlns="http://www.w3.org/2000/svg" xmlns:xlink="http://www.w3.org/1999/xlink" x="0px" y="0px" viewBox="0 0 160 88" style="enable-background:new 0 0 160 88;" xml:space="preserve">
<style type="text/css">
	.st0{fill:#0071B6;}
</style>
<g>
	<path class="st0" d="M33.31,50.2H29.9l-5.97-15.02L17.87,50.2h-3.49L6,28.48h5.22l5.51,14.56l5.76-14.56h3.53l5.89,14.56   l5.26-14.56h4.5L33.31,50.2L33.31,50.2z M67.09,46.11v4.08H44.67V28.48h22.22v3.7H49.72v4.84h10.01v3.7H49.72v5.39H67.09   L67.09,46.11z M95.87,43.17v2.78c0,2.83-2.13,4.25-6.39,4.25H72.23V28.48h18.6c3.25,0,4.88,1.4,4.88,4.21v2.65   c0,2.13-1.25,3.35-3.74,3.66C94.57,39.34,95.87,40.73,95.87,43.17L95.87,43.17z M91.03,33.58c0-1.04-0.77-1.56-2.31-1.56H77.19   v5.17h11.53c1.54,0,2.31-0.52,2.31-1.56V33.58L91.03,33.58z M91.16,42.71c0-0.81-0.22-1.36-0.67-1.64   c-0.34-0.2-0.93-0.29-1.77-0.29H77.19v5.51h11.53c0.84,0,1.43-0.1,1.77-0.29c0.45-0.28,0.67-0.83,0.67-1.64V42.71L91.16,42.71z"/>
	<path d="M137.33,17.63c0,0.19,0.31-0.13,0.38,0.13c0.25,0.76-0.76,0.19-0.76,0.51c0,0.25,0.69,0.25,0.51,0.5   c-0.19,0.25-0.57-0.32-0.51,0.06c0.06,0.38,0.51,0.32,0.25,0.51c-1.26,0.95-0.88-0.69-0.57-1.7c0.12-0.38,0.06-0.82,0.44-0.95   c0.19-0.06,0.51-0.44,0.51-0.63c-0.19-1.2-0.69,0.51-0.88,0.32c-0.32-0.25,0.44-2.97-0.51-2.27c-0.82,0.63,0.57,2.78-0.13,2.78   c-0.57,0-0.44-1.39-0.7-1.96c-0.31-0.57,0-0.5-0.25-1.2c-0.25-0.76-0.95-1.14-1.71-0.76c-0.69,0.32-1.45,0.44-2.21,0.63   c-0.76,0.25-1.58,0.5-2.15,1.2c-0.13,0.19,0.25,0.32,0.13,0.44c-0.25,0.25-0.76-0.06-1.01,0.25c-0.38,0.38-0.44-0.38-0.89-0.57   c-0.94-0.44-1.2,0.69-0.57,1.33c0.19,0.19,0.57-0.44,0.76-0.25c0.63,0.57-0.06,1.64-0.32,2.46c-0.69,1.77-2.08,3.35-2.97,5.18   c-0.44,0.82-2.52,5.36-3.41,5.81c-0.69,0.25-0.88,2.14-1.14,2.78c-0.51,1.83-1.51,3.03-2.46,4.67c-0.32,0.63-0.63,1.33-0.95,1.96   c-0.51,1.2-0.57,1.39,0.69,1.89c1.96,0.76,3.79,1.14,5.74,1.64c0.63,0.19,1.07,0.57,1.77,0.69c0.82,0.13,1.2,0.44,2.02,0.82   c0.63,0.32,1.64-0.06,1.64,0.63c0,0.69-1.2,1.2-1.89,1.14c-0.57-0.06-0.95-0.44-1.45-0.51c-1.14-0.06-2.27,0.32-3.41,0.38   c-1.45,0.06-1.89-0.88-3.16-0.88c-1.52,0.06-2.91-0.63-4.36-0.76c-0.06,1.39-0.82,2.52-1.39,3.72c-0.63,1.33-1.39,2.34-1.96,3.66   c-1.89,4.23-3.91,8.08-5.56,12.5c-0.69,1.64-1.58,3.16-2.33,4.79c-0.63,1.39-1.89,3.34-1.89,4.8c0,1.26-1.26,2.71-1.26,3.79   c0,0.44,0.31-0.38,0.51,0c0.31,0.57,0.57,0.88,0.13,1.52c-0.38,0.63-1.07,1.01-1.77,1.2c-0.69,0.19-1.32-1.58-1.45-2.08   c-0.06-0.51-0.12-0.95-0.19-1.39c0.38-0.25,1.01-0.51,0.76-0.88c-0.19-0.25-0.57,0.06-0.88,0.13c0-2.27,1.26-4.42,2.21-6.38   c0.51-1.07,0.82-1.83,0.82-3.03c0-1.07,0.88-1.96,1.39-2.9c0.38-0.63,0.5-1.52,1.07-1.96c0.57-0.44,0.19-0.5,0.44-1.07   c0.63-1.51,1.45-3.16,2.34-4.8c1.51-3.34,2.71-6.37,4.23-9.97c0.32-0.82,0.95-1.39,1.26-2.15c0.38-0.82,0.25-0.88-0.51-1.07   c-0.44-0.13-0.82-0.25-1.26-0.44c-0.63-0.19-1.52-0.51-1.89-1.07c-0.25-0.32-1.64-2.33-1.32-2.65c-1.89,0,2.21-2.9,1.64-1.77   c1.07,0,0.38,0.19,1.01,0.76c0.57,0.13,0.95,0.13,1.45,0.57c0.82,0.69,1.77,1.2,2.9,1.33c0.95-2.46,2.15-4.73,3.34-7.01   c2.21-4.17,3.72-8.58,6.56-12.37c0.31-0.44,0.69-0.82,1.2-1.14c0.57-0.32,0.25-0.38,0.38-0.95c0.12-0.82,0.63-1.45,1.2-2.02   c1.14-1.2,2.08-2.71,3.35-3.79c0.44-0.38,1.01-0.69,1.58-0.82c0.76-0.19,0.06-0.44,0.88-0.82c0.95-0.44,2.02-0.82,3.09-0.5   c0.25,0.13,1.07,0.06,1.26,0.32c0.13,0.25,0.19,0.5,0.44,0.69c1.07,0.19,1.2,0.63,1.71,1.58c0.51,0.95,1.07,1.96,1.07,3.03   C138.4,16.24,137.33,16.68,137.33,17.63L137.33,17.63z M136.51,12.45c-0.44-0.25-0.88,0.32-0.69,0.63c0.13,0.25,0.38,0.19,0.63,0   C136.76,12.9,136.89,12.71,136.51,12.45L136.51,12.45z M127.99,16.62c0-0.57,1.07-0.95,1.07-0.25   C129.06,18.07,127.99,19.02,127.99,16.62L127.99,16.62z M128.75,44.89c0.25,0.25-0.25,1.01-0.63,0.63c-0.19-0.19-0.19-0.19,0-0.38   C128.3,44.96,128.56,44.7,128.75,44.89L128.75,44.89z M136.82,21.86c-0.06-0.69-0.76-2.4,0.38-1.26   C137.64,21.04,136.89,22.43,136.82,21.86L136.82,21.86z M136.95,23.12c-0.06,0.13,0.13,0.44-0.06,0.44c-0.06,0-0.25-0.19-0.32-0.32   c-0.06-0.13-0.12-0.25-0.12-0.38C136.45,22.05,137.33,22.49,136.95,23.12L136.95,23.12z M151.84,36.18   c-0.69,0.25-0.69-0.95-0.13-0.95C152.03,35.24,152.1,36.06,151.84,36.18L151.84,36.18z M150.33,37.19c-0.13,0-0.13-0.13-0.32-0.19   c-0.69-0.13-0.06,0.82-0.19,0.95c-0.31,0.32-1.07-0.38-1.32,0c-0.13,0.19,0,0.44-0.13,0.63c-0.44,0.57-0.76,0-1.26,0.13   c-0.13,0,0.44,0.19,0.38,0.38c-0.19,0.44,0.31,0.5-0.25,0.5c-0.57,0-0.51,0.25-0.88,0.5c-0.06,0.06-0.06-0.44-0.13-0.25   c0,0.95-1.07,0.82-1.7,1.26c-0.69,0.57-1.26,1.26-1.83,1.96c-0.25,0.31-3.53,3.35-3.85,3.41c0,2.21,4.67,9.47,1.14,10.6   c0-0.31-0.63-0.95-0.76-1.39c-0.25-1.14-1.32-3.03-1.32-3.6c-0.06-0.57-0.69-1.14-1.01-1.58c-0.5-0.82-0.76-1.58-1.45-0.82   c-0.51,0.57-1.45,1.2-1.83,2.02c-0.69,1.2-2.21,2.46-3.22,3.47c-1.14,1.14-2.84,2.14-3.91,3.6c-0.82,1.14-1.51,2.4-2.53,3.47   c0-0.95-0.12-0.44-0.12-1.77c0-0.38-1.01-1.64-0.63-1.64c0.19,0,0.25,0.38,0.38,0.25c0.63-0.63-0.38-0.82,0.31-1.64   c0.63-0.76,2.15-3.47,3.22-3.47c0,0,2.46-2.4,2.59-2.53c0.57-0.69,0.57-1.26,1.39-1.89c0.63-0.44,3.72-2.4,2.9-3.16   c-0.44-0.44-0.82-1.07-1.07-1.64c-0.31-0.69-0.31-0.57-0.88-1.07c-0.95-0.88-1.96-1.89-2.59-3.22c-0.06-0.19,0.44,0,0.38-0.13   c-0.38-0.76-0.51-0.51-0.19-1.07c0.19-0.5-0.32-1.32,0.06-1.45c0.69-0.25,0.94-0.38,1.51-0.13c0.5,0.25,0.82,0.76,1.14,1.2   c0.38,0.69,0.76,1.33,1.39,1.77c0.5,0.38,1.39,0.57,1.39,1.2c0,0.82,0.88,0.63,1.2,1.33c0.32,0.57,0.63,0.95,1.14,0.44   c0.5-0.57,1.2-0.82,1.83-1.14c1.45-0.88,1.07-2.08,2.9-2.52c1.26-0.32,1.52-1.26,2.84-1.51c0.69-0.19,0.31-0.57,0.82-1.01   c0.44-0.32,1.14-0.51,1.77-0.51c0.63,0,1.2-1.26,1.7-0.88c0.32,0.25,0,0.57,0.44,0.38c0.57-0.25-0.19-0.57,0.32-0.63   c0.51-0.06,1.26,0.38,0.88,0.76C150.2,37.32,151.21,37.19,150.33,37.19L150.33,37.19z M127.48,39.21c-1.33-0.63-0.76-3.47,0.25-2.9   c0.25,0.13-0.31,0.57-0.12,0.76c0.38,0.5,0.31-1.07,1.07-0.95c0.63,0.13,0.51,0.95,0.25,1.45   C128.81,37.83,127.86,39.72,127.48,39.21L127.48,39.21z M122.69,59.73c0.31-0.32,0.38-0.13,0.38,0.25   C122.81,60.67,122.81,60.23,122.69,59.73L122.69,59.73z"/>
</g>
</svg>